<svg width="120" height="120" viewBox="0 0 120 120" fill="none" xmlns="http://www.w3.org/2000/svg">
<g clip-path="url(#clip0_5_5329)">
<path fill-rule="evenodd" clip-rule="evenodd" d="M0 0H60H120V120H60H0V0Z" fill="#0540A8"/>
<path d="M-0.0999756 49.4L17.9 37.4L51.8 60H62.9V52.6L29 30L62.9 7.4V0H51.8L17.9 22.6L2.44156e-05 10.7" fill="#F0F0F0"/>
<path d="M-0.0999756 25.5L6.70002 30L-0.0999756 34.6" fill="#F0F0F0"/>
<path d="M0 44.7L17.9 32.8L58.7 60H62.9V57.2L22.1 30L62.9 2.8V0H58.7L17.9 27.2L0 15.3" fill="#FF1612"/>
<path d="M2.44156e-05 20.9L13.7 30L-0.0999756 39.2" fill="#FF1612"/>
<path fill-rule="evenodd" clip-rule="evenodd" d="M10.4 0H17.9H25.3V20.1H62.9V39.9H25.3V60H17.9H10.4V39.9H0V20.1H10.4V0Z" fill="#F0F0F0"/>
<path fill-rule="evenodd" clip-rule="evenodd" d="M22.5 0V23.8H62.9V36.2H22.5V60H17.9H13.2V36.2H0V23.8H13.2V0H17.9H22.5Z" fill="#FF1612"/>
<path fill-rule="evenodd" clip-rule="evenodd" d="M109.6 79.0999L110.8 82.6999H114.6L111.5 84.9L112.7 88.5999L109.6 86.3L106.5 88.5999L107.7 84.9L104.6 82.6999H108.4L109.6 79.0999ZM87.8 44.4L88.9 48.0999H92.7L89.6 50.4L90.8 54L87.8 51.7L84.7 54L85.9 50.4L82.8 48H86.6L87.8 44.2999V44.4ZM110 22.2L111.2 25.7999H115L111.9 28L113.1 31.7L110 29.4L106.9 31.7L108.1 28L105 25.7999H108.8L110 22.2Z" fill="#FF1612" stroke="#F5F5F5" stroke-miterlimit="2.41"/>
</g>
<defs>
<clipPath id="clip0_5_5329">
<rect width="120" height="120" fill="white"/>
</clipPath>
</defs>
</svg>
