<svg width="77" height="77" viewBox="0 0 77 77" fill="none" xmlns="http://www.w3.org/2000/svg">
<circle cx="38.3935" cy="38.3935" r="38.3935" fill="#F28B5F"></circle>
<path d="M60.7157 43.6963C60.966 43.6963 61.1708 43.9238 61.1708 44.2196C61.1708 44.3561 61.1025 44.5381 60.966 44.7656C60.1242 45.9715 58.1448 46.9953 56.1654 46.9953C53.0712 46.9953 50.4547 44.8339 50.4547 41.0344C50.4547 37.4624 53.0712 34.9824 56.0517 34.9824C58.8501 34.9824 60.7157 37.1211 60.7157 39.3507C60.7157 39.8285 60.5792 39.965 60.238 40.0788L52.9347 42.263C53.549 44.1286 55.0278 45.4482 56.9162 45.4482C58.2586 45.4482 59.3962 44.8567 60.1242 44.0376C60.3517 43.8101 60.5337 43.6963 60.7157 43.6963ZM55.7559 36.302C53.9585 36.302 52.5934 37.8491 52.5934 40.1926C52.5934 40.5111 52.6162 40.8069 52.6617 41.1026L57.9173 39.4645C58.3268 39.3507 58.4406 39.237 58.4406 38.8502C58.4406 37.7126 57.3713 36.302 55.7559 36.302Z" fill="#152D43"></path>
<path d="M48.6511 43.6963C48.9014 43.6963 49.1062 43.9238 49.1062 44.2196C49.1062 44.3561 49.0379 44.5381 48.9014 44.7656C48.0596 45.9715 46.0802 46.9953 44.1008 46.9953C41.0066 46.9953 38.3901 44.8339 38.3901 41.0344C38.3901 37.4624 41.0066 34.9824 43.987 34.9824C46.7855 34.9824 48.6511 37.1211 48.6511 39.3507C48.6511 39.8285 48.5146 39.965 48.1734 40.0788L40.8701 42.263C41.4844 44.1286 42.9632 45.4482 44.8516 45.4482C46.194 45.4482 47.3315 44.8567 48.0596 44.0376C48.2871 43.8101 48.4691 43.6963 48.6511 43.6963ZM43.6913 36.302C41.8939 36.302 40.5288 37.8491 40.5288 40.1926C40.5288 40.5111 40.5515 40.8069 40.597 41.1026L45.8527 39.4645C46.2622 39.3507 46.376 39.237 46.376 38.8502C46.376 37.7126 45.3066 36.302 43.6913 36.302Z" fill="#152D43"></path>
<path d="M36.0131 35.1421C36.9687 35.1421 37.6285 35.6199 37.6285 36.1887C37.6285 36.5299 37.492 37.0987 37.219 38.0998C37.1052 38.4866 36.9232 38.7141 36.6047 38.7141C36.3089 38.7141 36.1724 38.4638 36.0359 38.0998C35.7401 37.3945 35.4443 37.0532 34.9665 37.0532C33.8745 37.0532 31.9861 38.8051 31.9861 41.9903V44.1518C31.9861 45.9946 33.7607 45.2666 33.7607 46.1994C33.7607 46.4042 33.6014 46.6544 33.2602 46.6544C32.6914 46.6544 31.8951 46.5862 30.9623 46.5862C30.1659 46.5862 29.5289 46.6544 29.0511 46.6544C28.6643 46.6544 28.5051 46.4042 28.5051 46.1994C28.5051 45.3348 29.9384 45.9946 29.9384 44.1518V38.5776C29.9384 37.167 28.3231 37.9405 28.3231 37.0532C28.3231 36.6892 28.7326 36.4389 29.9157 35.8701C31.076 35.3014 31.3263 35.2331 31.5083 35.2331C31.8723 35.2331 31.9861 35.5289 31.9861 36.0294V38.3728C32.7369 36.4389 34.3978 35.1421 36.0131 35.1421Z" fill="#152D43"></path>
<path d="M27.4224 32.7985C27.8547 33.663 28.014 34.0498 28.014 34.3456C28.014 34.6641 27.7637 34.8234 27.5589 34.8234C27.2632 34.8234 27.0811 34.6413 26.7626 34.3001C25.1928 32.6164 24.3282 31.7064 22.4853 31.7064H20.5969C18.9588 31.7064 18.7995 32.0021 18.7995 32.8212V37.4398C18.7995 37.8038 18.9133 37.9403 19.4366 37.9403H22.4626C23.9187 37.9403 23.7821 36.2112 24.5785 36.2112C24.8515 36.2112 25.0562 36.3705 25.0562 36.8483C25.0562 37.3943 24.988 37.9631 24.988 38.5546C24.988 39.1462 25.0562 39.7377 25.0562 40.261C25.0562 40.7388 24.8515 40.8981 24.5785 40.8981C23.7821 40.8981 23.9187 39.1689 22.4626 39.1689H19.4366C18.9133 39.1689 18.7995 39.3054 18.7995 39.6695V44.3563C18.7995 45.8807 20.6424 45.3119 20.6424 46.1992C20.6424 46.4495 20.4832 46.6542 20.0736 46.6542C19.4821 46.6542 18.6175 46.586 17.6619 46.586C16.7746 46.586 16.0921 46.6542 15.5688 46.6542C15.182 46.6542 15 46.4495 15 46.1992C15 45.3119 16.5244 45.8807 16.5244 44.3563V32.7302C16.5244 31.2058 15 31.7519 15 30.8873C15 30.6143 15.182 30.4095 15.637 30.4095C16.0011 30.4095 16.8201 30.4778 17.6392 30.4778H24.3964C25.0562 30.4778 25.079 30 25.5795 30C25.9891 30 26.2166 30.2958 26.6261 31.1148L27.4224 32.7985Z" fill="#152D43"></path>
</svg>
