<svg width="105" height="104" viewBox="0 0 105 104" fill="none" xmlns="http://www.w3.org/2000/svg">
<path d="M104.5 52C104.5 80.7188 81.2188 104 52.5 104C23.7812 104 0.5 80.7188 0.5 52C0.5 23.2812 23.7812 0 52.5 0C81.2188 0 104.5 23.2812 104.5 52Z" fill="#F28B5F"></path>
<path d="M65.2996 36.4876C65.4306 36.4876 65.5377 36.6067 65.5377 36.7615C65.5377 36.833 65.502 36.9282 65.4306 37.0473C64.9899 37.6785 63.9539 38.2143 62.9179 38.2143C61.2984 38.2143 59.9289 37.0831 59.9289 35.0944C59.9289 33.2248 61.2984 31.9268 62.8584 31.9268C64.3231 31.9268 65.2996 33.0461 65.2996 34.2132C65.2996 34.4632 65.2281 34.5347 65.0495 34.5942L61.2269 35.7374C61.5485 36.7139 62.3225 37.4046 63.3109 37.4046C64.0135 37.4046 64.6089 37.095 64.99 36.6663C65.109 36.5472 65.2043 36.4876 65.2996 36.4876ZM62.7036 32.6174C61.7628 32.6174 61.0483 33.4272 61.0483 34.6538C61.0483 34.8205 61.0602 34.9753 61.084 35.1301L63.8348 34.2727C64.0492 34.2132 64.1087 34.1536 64.1087 33.9512C64.1087 33.3558 63.549 32.6174 62.7036 32.6174Z" fill="#152D43"></path>
<path d="M59.4876 32.1054C59.6543 32.1054 59.7734 32.1887 59.7734 32.3316C59.7734 32.7127 59.1541 32.5936 58.8922 33.2248L57.0226 37.6904C56.9035 37.9762 56.7963 38.0595 56.451 38.0595C56.0937 38.0595 55.9865 37.9643 55.8674 37.6785L53.9978 33.2486C53.724 32.5817 53.1166 32.7127 53.1166 32.3316C53.1166 32.1768 53.2357 32.1054 53.4024 32.1054C53.712 32.1054 54.0217 32.1411 54.5337 32.1411C54.9862 32.1411 55.3197 32.1054 55.5816 32.1054C55.7722 32.1054 55.8913 32.1887 55.8913 32.3555C55.8913 32.7484 55.2006 32.5936 55.2006 33.1414C55.2006 33.2367 55.2482 33.4868 55.3792 33.7964L56.6653 36.9759L57.9157 33.7964C58.0348 33.4748 58.1181 33.2724 58.1181 33.0938C58.1181 32.6055 57.3917 32.7484 57.3917 32.3555C57.3917 32.1887 57.5108 32.1054 57.7013 32.1054C57.9395 32.1054 58.2491 32.1411 58.5706 32.1411C58.8922 32.1411 59.1899 32.1054 59.4876 32.1054Z" fill="#152D43"></path>
<path d="M53.454 37.3331C53.585 37.357 53.6445 37.4165 53.6445 37.5118C53.6445 37.738 53.192 38.0953 52.6323 38.0953C52.1441 38.0953 51.7154 37.8095 51.5367 37.1902C51.0723 37.738 50.2983 38.131 49.3575 38.131C48.131 38.131 47.3331 37.4046 47.3331 36.3567C47.3331 35.3206 48.2381 34.487 49.7505 34.487C50.2744 34.487 50.727 34.5823 51.1676 34.7133L51.1438 34.5585C50.9651 33.2367 50.5007 32.8318 49.7148 32.8318C49.1789 32.8318 48.6906 33.1176 48.2619 33.5106C48.1429 33.6058 48.0476 33.6535 47.9642 33.6535C47.8452 33.6535 47.7261 33.5582 47.7261 33.4153C47.7261 33.2962 47.7975 33.189 47.9166 33.0342C48.3096 32.4865 49.1789 32.0101 50.072 32.0101C51.6082 32.0101 51.9892 33.07 52.156 34.2251L52.4537 36.2257C52.5727 37.1188 52.8347 37.2141 53.454 37.3331ZM49.7148 37.4165C50.4173 37.4165 51.0723 36.9878 51.4176 36.5115L51.2509 35.3325C50.846 35.1777 50.4054 35.0944 49.9886 35.0944C48.9883 35.0944 48.4644 35.5469 48.4644 36.2614C48.4644 36.9402 48.9764 37.4165 49.7148 37.4165Z" fill="#152D43"></path>
<path d="M40.8404 38.2143C40.6498 38.2143 40.5427 38.0476 40.3998 37.7499L39.9473 36.7496C39.6376 36.0828 39.5186 35.928 39.5186 35.7255C39.5186 35.5588 39.6495 35.4516 39.7686 35.4516C39.9353 35.4516 40.1021 35.6422 40.1973 35.7374C41.1024 36.7139 42.1622 37.476 43.5793 37.476C44.8535 37.476 45.5442 36.8687 45.5442 35.9399C45.5442 34.8324 44.5796 34.487 43.0672 34.0345C41.5191 33.5701 39.852 33.0819 39.852 31.4385C39.852 30.3072 40.8404 29.4022 42.2575 29.4022C43.2339 29.4022 43.746 29.6999 44.008 29.6999C44.2938 29.6999 44.27 29.3546 44.5439 29.3546C44.7582 29.3546 44.8773 29.5808 45.1155 29.9738L45.4489 30.5335C45.83 31.1765 45.9133 31.4028 45.9133 31.5457C45.9133 31.6529 45.818 31.76 45.699 31.76C45.5442 31.76 45.4132 31.6291 45.2584 31.4742C44.401 30.593 43.484 30.0929 42.3765 30.0929C41.5191 30.0929 40.9595 30.5335 40.9595 31.2242C40.9595 32.1292 41.8645 32.4031 43.4007 32.8675C45.0321 33.3558 46.6754 33.9035 46.6754 35.7493C46.6754 37.2498 45.4489 38.1667 43.6865 38.1667C42.4956 38.1667 41.7454 37.7976 41.4596 37.7976C41.1619 37.7976 41.1143 38.2143 40.8404 38.2143Z" fill="#152D43"></path>
<path d="M87.5312 67.26C84.6453 67.26 82.6173 66.35 81.1353 64.712L83.2933 62.5021C84.3593 63.8541 85.6073 64.4781 87.6092 64.4781C90.7292 64.4781 92.7831 62.0861 92.7831 57.3282C91.5351 59.4082 89.5332 60.5261 87.1672 60.5261C83.7093 60.5261 81.0833 58.3422 81.0833 54.5722C81.0833 50.8803 83.7353 47.7604 88.0512 47.7604C93.4851 47.7604 95.8251 51.9983 95.8251 57.0162C95.8251 63.6981 92.1331 67.26 87.5312 67.26ZM83.9433 54.5722C83.9433 55.8462 84.3333 56.7822 85.1133 57.3802C85.8933 57.9782 86.8032 58.2642 87.8432 58.2642C90.0012 58.2642 91.7691 57.2502 92.6011 54.9882C92.1071 52.0763 90.5472 50.5943 88.0512 50.5943C85.4513 50.5943 83.9433 52.2063 83.9433 54.5722Z" fill="#152D43"></path>
<path d="M79.9406 61.8001C79.9406 65.154 77.0026 67.26 72.5307 67.26C67.8508 67.26 65.1209 65.388 65.1209 62.0601C65.1209 59.6681 66.8108 57.7442 69.4368 57.0422C67.3568 56.5222 65.8489 55.1702 65.8489 52.7783C65.8489 51.2963 66.4728 50.0743 67.6948 49.1644C68.9168 48.2284 70.5548 47.7604 72.5827 47.7604C74.5847 47.7604 76.1967 48.2284 77.4186 49.1384C78.6406 50.0483 79.2646 51.2183 79.2646 52.6743C79.2646 54.9622 77.8086 56.4182 75.7287 57.0162C78.2506 57.6662 79.9406 59.4081 79.9406 61.8001ZM72.5827 56.1582C74.8707 56.1582 76.4046 55.0922 76.4046 53.3243C76.4046 51.5563 75.0007 50.3343 72.5827 50.3343C70.1648 50.3343 68.7088 51.5823 68.7088 53.3243C68.7088 55.1182 70.2688 56.1582 72.5827 56.1582ZM72.5827 64.556C75.3907 64.556 76.9246 63.1781 76.9246 61.3061C76.9246 59.2262 75.0787 58.1082 72.5827 58.1082C70.0868 58.1082 68.2148 59.2781 68.2148 61.3581C68.2148 63.2041 69.6968 64.556 72.5827 64.556Z" fill="#152D43"></path>
<path d="M60.9859 67.26C59.66 67.26 58.75 66.324 58.75 65.05C58.75 63.7761 59.66 62.8661 60.9859 62.8661C62.3379 62.8661 63.2479 63.7761 63.2479 65.05C63.2479 66.324 62.3379 67.26 60.9859 67.26Z" fill="#152D43"></path>
<path d="M49.051 67.26C46.165 67.26 44.1371 66.35 42.6551 64.712L44.813 62.5021C45.879 63.8541 47.127 64.4781 49.129 64.4781C52.2489 64.4781 54.3029 62.0861 54.3029 57.3282C53.0549 59.4082 51.0529 60.5261 48.687 60.5261C45.229 60.5261 42.6031 58.3422 42.6031 54.5722C42.6031 50.8803 45.255 47.7604 49.5709 47.7604C55.0048 47.7604 57.3448 51.9983 57.3448 57.0162C57.3448 63.6981 53.6529 67.26 49.051 67.26ZM45.463 54.5722C45.463 55.8462 45.853 56.7822 46.633 57.3802C47.413 57.9782 48.323 58.2642 49.3629 58.2642C51.5209 58.2642 53.2889 57.2502 54.1209 54.9882C53.6269 52.0763 52.0669 50.5943 49.5709 50.5943C46.971 50.5943 45.463 52.2063 45.463 54.5722Z" fill="#152D43"></path>
<path d="M34.0568 67H30.6248L38.5027 50.8803H28.3629V48.0204H41.5446V50.6983L34.0568 67Z" fill="#152D43"></path>
<path d="M14.6886 59.4081H11.8546V57.7702H14.0126C13.4666 56.6522 12.7646 55.5342 12.7646 53.8703C12.7646 50.4123 15.6246 47.7604 19.7325 47.7604C24.2824 47.7604 26.7783 50.4383 27.1163 54.5722L23.9444 55.1702C23.7624 52.4403 22.5144 50.5423 19.8105 50.5423C17.4965 50.5423 15.9365 52.0243 15.9365 54.2343C15.9365 55.5082 16.4565 56.6262 16.8465 57.7702H23.7104V59.4081H17.1845V59.6681C17.1845 61.3061 16.5345 62.4761 15.5986 63.3341C16.0925 63.2041 16.6645 63.0741 17.3145 63.0741C19.6805 63.0741 21.3184 64.452 23.0864 64.452C24.2304 64.452 24.9844 63.7241 25.2184 61.9561L27.8183 62.6321C27.3243 66.272 25.1924 67.312 23.3464 67.312C20.6685 67.312 19.2905 65.674 17.2365 65.674C15.8585 65.674 14.3506 66.402 12.9726 67.156L11.6986 64.764C12.9986 64.0621 13.8566 63.3601 14.2466 62.6841C14.6366 62.0081 14.8446 61.2801 14.8446 60.4741C14.8446 60.0841 14.7926 59.7461 14.6886 59.4081Z" fill="#152D43"></path>
</svg>
