<svg width="23" height="22" viewBox="0 0 23 22" fill="none" xmlns="http://www.w3.org/2000/svg">
<circle cx="11.5" cy="11" r="11" fill="#F5F5F5"></circle>
<path fill-rule="evenodd" clip-rule="evenodd" d="M15.1237 11.0293C14.3962 11.0293 13.8041 10.437 13.8041 9.7094C13.8041 8.98152 14.3962 8.38947 15.1237 8.38947C15.8513 8.38947 16.4437 8.98152 16.4437 9.7094C16.4437 10.437 15.8513 11.0293 15.1237 11.0293ZM13.3667 14.0822C12.6388 14.0822 12.0465 13.4898 12.0465 12.762C12.0465 12.0344 12.6388 11.4423 13.3667 11.4423C14.0943 11.4423 14.6863 12.0344 14.6863 12.762C14.6863 13.4898 14.0943 14.0822 13.3667 14.0822ZM11.6091 17.1252C10.8815 17.1252 10.2895 16.5328 10.2895 15.8053C10.2895 15.0774 10.8815 14.485 11.6091 14.485C12.337 14.485 12.9293 15.0774 12.9293 15.8053C12.9293 16.5328 12.337 17.1252 11.6091 17.1252ZM8.53213 12.762C8.53213 12.0344 9.12419 11.4423 9.85206 11.4423C10.5796 11.4423 11.1717 12.0344 11.1717 12.762C11.1717 13.4898 10.5796 14.0822 9.85206 14.0822C9.12419 14.0822 8.53213 13.4898 8.53213 12.762ZM6.7748 9.7094C6.7748 8.98152 7.36685 8.38947 8.09473 8.38947C8.82229 8.38947 9.41466 8.98152 9.41466 9.7094C9.41466 10.437 8.82229 11.0293 8.09473 11.0293C7.36685 11.0293 6.7748 10.437 6.7748 9.7094ZM11.6091 8.38947C12.337 8.38947 12.9293 8.98152 12.9293 9.7094C12.9293 10.437 12.337 11.0293 11.6091 11.0293C10.8815 11.0293 10.2895 10.437 10.2895 9.7094C10.2895 8.98152 10.8815 8.38947 11.6091 8.38947ZM8.57288 4.91586C9.88663 5.12237 10.9244 6.16047 11.1306 7.47361C9.81749 7.2671 8.77939 6.22931 8.57288 4.91586ZM17.3185 9.7094C17.3185 8.49936 16.3341 7.51466 15.1237 7.51466C14.4048 7.51466 13.7668 7.86409 13.3667 8.40027C13.055 7.98293 12.5996 7.67919 12.0736 7.56529C12.2647 6.05089 13.5584 4.87481 15.1237 4.87481C15.3654 4.87481 15.5611 4.6791 15.5611 4.4374C15.5611 4.1954 15.3654 4 15.1237 4C13.5927 4 12.265 4.87666 11.6091 6.15337C10.9531 4.87666 9.62549 4 8.09473 4C7.85272 4 7.65733 4.1954 7.65733 4.4374C7.65733 6.09163 8.67968 7.50972 10.1249 8.09776C10.0246 8.19006 9.93386 8.29131 9.85206 8.40027C9.45139 7.86409 8.81396 7.51466 8.09473 7.51466C6.88469 7.51466 5.89999 8.49936 5.89999 9.7094C5.89999 10.8333 6.74949 11.7612 7.83976 11.8881C7.72277 12.156 7.65733 12.4514 7.65733 12.762C7.65733 13.8846 8.50466 14.8116 9.59307 14.9403C9.47855 15.2058 9.41466 15.4984 9.41466 15.8053C9.41466 17.0156 10.399 18 11.6091 18C12.8194 18 13.8041 17.0156 13.8041 15.8053C13.8041 15.4984 13.7402 15.2058 13.6257 14.9403C14.7138 14.8116 15.5611 13.8846 15.5611 12.762C15.5611 12.4514 15.4954 12.156 15.3784 11.8881C16.469 11.7615 17.3185 10.8333 17.3185 9.7094Z" fill="black"></path>
<mask id="mask0_15_7302" style="mask-type: luminance" maskUnits="userSpaceOnUse" x="5" y="4" width="13" height="14">
<path fill-rule="evenodd" clip-rule="evenodd" d="M15.1237 11.0293C14.3962 11.0293 13.8041 10.437 13.8041 9.7094C13.8041 8.98152 14.3962 8.38947 15.1237 8.38947C15.8513 8.38947 16.4437 8.98152 16.4437 9.7094C16.4437 10.437 15.8513 11.0293 15.1237 11.0293ZM13.3667 14.0822C12.6388 14.0822 12.0465 13.4898 12.0465 12.762C12.0465 12.0344 12.6388 11.4423 13.3667 11.4423C14.0943 11.4423 14.6863 12.0344 14.6863 12.762C14.6863 13.4898 14.0943 14.0822 13.3667 14.0822ZM11.6091 17.1252C10.8815 17.1252 10.2895 16.5328 10.2895 15.8053C10.2895 15.0774 10.8815 14.485 11.6091 14.485C12.337 14.485 12.9293 15.0774 12.9293 15.8053C12.9293 16.5328 12.337 17.1252 11.6091 17.1252ZM8.53213 12.762C8.53213 12.0344 9.12419 11.4423 9.85206 11.4423C10.5796 11.4423 11.1717 12.0344 11.1717 12.762C11.1717 13.4898 10.5796 14.0822 9.85206 14.0822C9.12419 14.0822 8.53213 13.4898 8.53213 12.762ZM6.7748 9.7094C6.7748 8.98152 7.36685 8.38947 8.09473 8.38947C8.82229 8.38947 9.41466 8.98152 9.41466 9.7094C9.41466 10.437 8.82229 11.0293 8.09473 11.0293C7.36685 11.0293 6.7748 10.437 6.7748 9.7094ZM11.6091 8.38947C12.337 8.38947 12.9293 8.98152 12.9293 9.7094C12.9293 10.437 12.337 11.0293 11.6091 11.0293C10.8815 11.0293 10.2895 10.437 10.2895 9.7094C10.2895 8.98152 10.8815 8.38947 11.6091 8.38947ZM8.57288 4.91586C9.88663 5.12237 10.9244 6.16047 11.1306 7.47361C9.81749 7.2671 8.77939 6.22931 8.57288 4.91586ZM17.3185 9.7094C17.3185 8.49936 16.3341 7.51466 15.1237 7.51466C14.4048 7.51466 13.7668 7.86409 13.3667 8.40027C13.055 7.98293 12.5996 7.67919 12.0736 7.56529C12.2647 6.05089 13.5584 4.87481 15.1237 4.87481C15.3654 4.87481 15.5611 4.6791 15.5611 4.4374C15.5611 4.1954 15.3654 4 15.1237 4C13.5927 4 12.265 4.87666 11.6091 6.15337C10.9531 4.87666 9.62549 4 8.09473 4C7.85272 4 7.65733 4.1954 7.65733 4.4374C7.65733 6.09163 8.67968 7.50972 10.1249 8.09776C10.0246 8.19006 9.93386 8.29131 9.85206 8.40027C9.45139 7.86409 8.81396 7.51466 8.09473 7.51466C6.88469 7.51466 5.89999 8.49936 5.89999 9.7094C5.89999 10.8333 6.74949 11.7612 7.83976 11.8881C7.72277 12.156 7.65733 12.4514 7.65733 12.762C7.65733 13.8846 8.50466 14.8116 9.59307 14.9403C9.47855 15.2058 9.41466 15.4984 9.41466 15.8053C9.41466 17.0156 10.399 18 11.6091 18C12.8194 18 13.8041 17.0156 13.8041 15.8053C13.8041 15.4984 13.7402 15.2058 13.6257 14.9403C14.7138 14.8116 15.5611 13.8846 15.5611 12.762C15.5611 12.4514 15.4954 12.156 15.3784 11.8881C16.469 11.7615 17.3185 10.8333 17.3185 9.7094Z" fill="white"></path>
</mask>
<g mask="url('#mask0_15_7302')">
</g>
</svg>
